PathFileType	4	(X/Y/Z)	C:\Users\86182\Documents\cortex\Trimmed_M3_L6.trc
DataRate	CameraRate	NumFrames	NumMarkers	Units	OrigDataRate	OrigDataStartFrame	OrigNumFrames
100.00	100.00	       113	2	mm	100.00	181	       901
Frame#	Time	gripper			box			
		X1	Y1	Z1	X2	Y2	Z2	

181	1.800	274.06512	148.89137	220.57932	276.50775	147.71513	83.66123	
182	1.810	274.21487	148.89001	220.99455	276.51428	147.55447	84.00542	
183	1.820	274.19260	148.87210	221.44609	276.68729	147.72014	84.39128	
184	1.830	274.19714	148.82852	221.74309	276.81226	147.84888	84.91380	
185	1.840	273.96255	148.85509	222.26549	276.61145	147.75581	85.39891	
186	1.850	274.19843	148.93036	222.79201	276.51682	147.69185	85.87180	
187	1.860	274.33694	148.97191	223.20302	276.71680	147.79103	86.21870	
188	1.870	274.16321	148.84639	223.59026	276.71408	147.85431	86.49105	
189	1.880	274.35971	148.92085	224.10811	276.72021	147.75807	87.26276	
190	1.890	274.27490	149.05396	224.53384	276.59543	147.89720	87.74567	
191	1.900	274.17746	149.05588	224.96686	276.66858	147.88123	88.09161	
192	1.910	274.03369	148.90205	225.40677	276.60941	147.93163	88.42255	
193	1.920	274.44214	148.91638	225.78033	276.68253	147.79152	88.80380	
194	1.930	274.25867	149.12892	226.18851	276.68091	147.81801	89.24047	
195	1.940	274.13535	149.04770	226.65721	276.58020	148.08571	89.92915	
196	1.950	274.11090	148.97934	227.05708	276.65070	148.11964	90.14863	
197	1.960	274.18860	149.05771	227.47839	276.51849	148.20261	90.16969	
198	1.970	274.36942	148.98431	227.75989	276.42804	148.19951	90.07162	
199	1.980	274.20587	149.01498	228.29333	276.37000	148.21950	89.71763	
200	1.990	274.02280	149.05986	228.72882	276.18201	148.26295	89.07171	
201	2.000	273.97122	149.17268	229.22923	275.86346	148.62917	88.79634	
202	2.010	274.21597	149.14873	229.63721	275.60959	148.65601	88.47269	
203	2.020	274.12357	149.06694	230.04100	275.62119	148.67567	87.96731	
204	2.030	274.11810	149.22313	230.59042	276.44202	148.67281	86.80113	
205	2.040	273.94940	149.14241	230.93906	275.58286	148.76456	86.64523	
206	2.050	274.13187	149.20328	231.29616	275.46082	148.91098	86.12232	
207	2.060	274.11914	149.19421	231.85602	275.32626	148.91444	86.03690	
208	2.070	274.13354	149.14323	232.14671	275.33936	148.91219	86.05626	
209	2.080	274.02667	149.14244	232.65508	275.31839	148.92006	86.46677	
210	2.090	274.06384	149.17754	233.06990	275.31326	148.80002	86.82941	
211	2.100	274.13284	149.20641	233.40790	276.17017	148.70444	86.67650	
212	2.110	273.93182	149.19951	233.86917	275.12030	148.97516	87.62621	
213	2.120	273.96161	149.21140	234.16028	275.31503	148.96194	88.21394	
214	2.130	274.03137	149.34470	234.62283	275.30212	148.97878	88.68757	
215	2.140	273.95181	149.37990	235.16440	275.11929	148.94769	88.87453	
216	2.150	273.84399	149.33287	235.58672	276.22955	148.77615	88.62001	
217	2.160	274.11868	149.27339	235.88893	275.00919	148.94263	89.78140	
218	2.170	274.07419	149.24408	236.46530	275.40073	148.99329	90.27148	
219	2.180	273.94208	149.38547	236.92082	275.24484	149.05455	90.73344	
220	2.190	274.14755	149.38031	237.21205	275.27994	149.01627	91.05407	
221	2.200	274.08096	149.33372	237.73927	276.40366	148.68686	90.85558	
222	2.210	274.18259	149.29916	238.21416	275.19998	149.04778	92.03867	
223	2.220	273.98611	149.44012	238.69339	275.44312	149.05998	92.38983	
224	2.230	274.09729	149.49971	239.16748	275.38251	149.13216	92.90919	
225	2.240	274.11441	149.40787	239.64066	275.43469	149.08885	93.39410	
226	2.250	274.15836	149.39775	240.01114	276.72552	148.68056	93.15409	
227	2.260	274.18024	149.42746	240.36218	275.31104	149.13890	94.09830	
228	2.270	274.12393	149.46501	240.87447	275.29340	149.17502	94.46008	
229	2.280	273.98611	149.58380	241.44946	275.39044	149.14247	95.04465	
230	2.290	273.91385	149.56091	241.65506	276.27963	148.96503	95.20930	
231	2.300	274.10141	149.52428	242.07997	275.43362	149.15454	95.74352	
232	2.310	273.98868	149.45111	242.53433	275.02344	149.24841	96.24310	
233	2.320	274.02676	149.48373	242.99886	274.89096	149.25839	96.69319	
234	2.330	273.96042	149.54999	243.38792	275.15030	149.33418	97.11453	
235	2.340	273.98398	149.61951	243.79797	275.18561	149.26796	97.46113	
236	2.350	273.91125	149.58647	244.15953	275.04501	149.31685	97.92592	
237	2.360	274.02106	149.41258	244.56638	274.83112	149.25905	98.41155	
238	2.370	274.06180	149.51256	244.95245	275.07416	149.32718	98.86734	
239	2.380	274.16806	149.55833	245.60677	275.20181	149.33189	99.02638	
240	2.390	274.05942	149.52574	246.00563	276.07822	149.10133	99.06949	
241	2.400	273.91162	149.55266	246.25204	276.09805	148.96704	99.60923	
242	2.410	274.13919	149.46848	246.71141	275.53122	149.21828	100.62820	
243	2.420	274.27496	149.40259	247.30284	275.26526	149.36281	100.88574	
244	2.430	274.17963	149.47223	247.77530	275.27213	149.27058	101.31332	
245	2.440	274.17575	149.63704	248.07449	275.77774	149.13622	101.44705	
246	2.450	274.13708	149.59233	248.54950	276.64954	149.01794	101.66379	
247	2.460	273.81702	149.49937	248.93102	275.43552	149.23608	102.61448	
248	2.470	274.02789	149.34753	249.23074	275.25009	149.16808	103.09628	
249	2.480	273.94025	149.31381	249.91815	275.11783	149.26744	103.31710	
250	2.490	273.83160	149.44539	250.43253	274.89175	149.24170	103.79132	
251	2.500	273.75278	149.45883	250.62575	274.84418	149.29515	104.26919	
252	2.510	273.70847	149.40947	250.83913	274.70148	149.18118	104.61800	
253	2.520	273.55765	149.39575	251.38029	274.72940	149.26663	105.02679	
254	2.530	273.92862	149.32655	251.88077	274.80405	149.17401	105.47033	
255	2.540	273.88370	149.40544	252.30453	274.77332	149.20927	105.89182	
256	2.550	273.49426	149.24182	252.78506	274.70380	149.22437	106.36422	
257	2.560	273.58713	149.24693	253.07213	274.59348	149.24648	106.70742	
258	2.570	273.79816	149.37814	253.51653	274.51822	149.19186	107.09101	
259	2.580	273.58865	149.35355	253.92288	274.62985	149.29910	107.58601	
260	2.590	273.55344	149.31477	254.53835	274.90414	149.20639	108.11616	
261	2.600	273.85446	149.34023	254.92885	274.74274	149.23712	108.47351	
262	2.610	273.74304	149.29959	255.28181	274.63425	149.21838	108.93780	
263	2.620	273.57181	149.33778	255.71094	274.70593	149.17719	109.32983	
264	2.630	273.54108	149.45561	256.25507	274.73093	149.24533	109.88149	
265	2.640	273.75696	149.40257	256.70593	274.69595	149.37747	110.24638	
266	2.650	273.84229	149.30290	257.09421	274.71088	149.25189	110.68082	
267	2.660	273.77472	149.28616	257.41632	274.48138	149.17688	111.27318	
268	2.670	273.65005	149.45802	257.84534	274.56119	149.26474	111.45670	
269	2.680	273.47165	149.44942	258.27866	274.56003	149.37259	111.89162	
270	2.690	273.76489	149.46799	258.75330	274.65878	149.40436	112.46217	
271	2.700	273.68362	149.43486	259.14746	274.29034	149.32951	112.94080	
272	2.710	273.81747	149.35580	259.66357	274.27963	149.37584	113.26482	
273	2.720	273.57123	149.39751	259.97144	274.27463	149.46277	113.61741	
274	2.730	273.70978	149.44632	260.32883	274.37186	149.38242	114.05212	
275	2.740	273.70001	149.57549	260.89349	274.31149	149.25452	114.55453	
276	2.750	273.78036	149.49899	261.26065	274.04434	149.27577	115.08518	
277	2.760	273.67661	149.44267	261.60397	274.38351	149.35254	115.25364	
278	2.770	273.86990	149.48088	262.12943	274.45886	149.38290	115.77453	
279	2.780	273.69742	149.44754	262.55722	274.14435	149.45197	116.33253	
280	2.790	273.68173	149.49463	262.97501	273.92065	149.40414	116.58685	
281	2.800	273.84665	149.52522	263.43549	274.40381	149.38782	117.17354	
282	2.810	273.78741	149.43730	263.93881	274.47543	149.28851	117.51983	
283	2.820	273.94159	149.47115	264.35077	274.26285	149.42261	118.14381	
284	2.830	273.71667	149.51874	264.66766	274.28769	149.49577	118.38131	
285	2.840	273.76752	149.57335	265.29089	274.19424	149.57062	118.78038	
286	2.850	273.77350	149.54506	265.72693	274.09396	149.52315	119.41411	
287	2.860	273.83694	149.54359	265.89664	274.44086	149.43849	119.80120	
288	2.870	273.81894	149.54091	266.52869	274.30322	149.55525	120.09464	
289	2.880	273.79199	149.51514	266.86444	274.31558	149.73949	120.53754	
290	2.890	273.69800	149.59929	267.25116	273.99228	149.57085	121.16140	
291	2.900	273.74609	149.61182	267.64029	273.91342	149.53172	121.35916	
292	2.910	273.76157	149.53387	268.09302	274.26224	149.55161	121.57485	
293	2.920	273.73813	149.58862	268.60843	274.28552	149.54485	122.02856	
